<?xml version="1.0" encoding="UTF-8" standalone="no"?>
<svg
   xmlns:dc="http://purl.org/dc/elements/1.1/"
   xmlns:cc="http://creativecommons.org/ns#"
   xmlns:rdf="http://www.w3.org/1999/02/22-rdf-syntax-ns#"
   xmlns:svg="http://www.w3.org/2000/svg"
   xmlns="http://www.w3.org/2000/svg"
   xmlns:sodipodi="http://sodipodi.sourceforge.net/DTD/sodipodi-0.dtd"
   xmlns:inkscape="http://www.inkscape.org/namespaces/inkscape"
   id="Capa_1"
   enable-background="new 0 0 512 512"
   height="512"
   viewBox="0 0 512 512"
   width="512"
   class=""
   version="1.1"
   sodipodi:docname="translate-dark.svg"
   inkscape:version="1.0 (4035a4fb49, 2020-05-01)">
  <metadata
     id="metadata17">
    <rdf:RDF>
      <cc:Work
         rdf:about="">
        <dc:format>image/svg+xml</dc:format>
        <dc:type
           rdf:resource="http://purl.org/dc/dcmitype/StillImage" />
      </cc:Work>
    </rdf:RDF>
  </metadata>
  <defs
     id="defs15" />
  <sodipodi:namedview
     inkscape:document-rotation="0"
     pagecolor="#ffffff"
     bordercolor="#666666"
     borderopacity="1"
     objecttolerance="10"
     gridtolerance="10"
     guidetolerance="10"
     inkscape:pageopacity="0"
     inkscape:pageshadow="2"
     inkscape:window-width="1366"
     inkscape:window-height="705"
     id="namedview13"
     showgrid="false"
     inkscape:zoom="0.74301455"
     inkscape:cx="143.05563"
     inkscape:cy="308.34263"
     inkscape:window-x="1358"
     inkscape:window-y="-8"
     inkscape:window-maximized="1"
     inkscape:current-layer="g10" />
  <g
     id="g10">
    <path
       d="m45 392h256c4.819 0 9.346-2.314 12.173-6.226 2.813-3.926 3.589-8.95 2.051-13.521l-119.986-361.984c-2.036-6.138-7.778-10.269-14.238-10.269h-136c-24.814 0-45 20.186-45 45v302c0 24.814 20.186 45 45 45zm76-270c20.054 0 38.877 7.808 53.042 21.973 5.845 5.874 5.845 15.366-.015 21.226-5.859 5.83-15.366 5.845-21.226-.015-8.481-8.511-19.775-13.184-31.801-13.184-24.814 0-45 20.186-45 45s20.186 45 45 45c19.53 0 36.024-12.578 42.237-30h-27.237c-8.291 0-15-6.709-15-15s6.709-15 15-15h45c8.291 0 15 6.709 15 15 0 41.353-33.647 75-75 75s-75-33.647-75-75 33.647-75 75-75z"
       data-original="#000000"
       class="active-path"
       style="fill:#ababab;fill-opacity:1"
       data-old_color="#000000"
       id="path2" />
    <path
       d="m 226.88189,378.9322 c 28.351,85.716 26.013,84.921 34.254,88.658 2.01,0.911 4.114,1.343 6.186,1.342 5.706,0 11.16,-3.274 13.67,-8.809 l 36.81301,-81.191 z"
       data-original="#000000"
       class="active-path"
       style="fill:#ababab;fill-opacity:1"
       data-old_color="#000000"
       id="path8" />
  </g>
  <g
     id="g8"
     transform="translate(-0.002)">
    <path
       id="path2-4"
       data-old_color="#000000"
       style="fill:#ababab;fill-opacity:1"
       class="active-path"
       data-original="#000000"
       d="M 467.002,121 H 247.045 L 210.236,10.268 C 208.198,4.137 202.463,0 196.002,0 h -151 c -24.813,0 -45,20.187 -45,45 v 301 c 0,24.813 20.187,45 45,45 h 165.297 l 36.509,110.438 c 2.017,6.468 7.999,10.566 14.329,10.566 0.035,0 0.07,-0.004 0.105,-0.004 h 205.761 c 24.813,0 45,-20.187 45,-45 V 166 c -0.001,-24.813 -20.188,-45 -45.001,-45 z m -422,240 c -8.271,0 -15,-6.729 -15,-15 V 45 c 0,-8.271 6.729,-15 15,-15 h 140.179 l 110.027,331 c -56.192,0 -194.724,0 -250.206,0 z m 247.729,30 -29.4,64.841 L 241.896,391 Z m 189.271,76 c 0,8.271 -6.729,15 -15,15 H 284.41 l 45.253,-99.806 c 1.623,-3.579 1.699,-7.544 0.571,-10.932 L 257.017,151 h 209.985 c 8.271,0 15,6.729 15,15 z" />
    <path
       id="path6"
       data-old_color="#000000"
       style="fill:#ababab;fill-opacity:1"
       class="active-path"
       data-original="#000000"
       d="m 444.07721,241 h -45 v -15 c 0,-8.284 -6.716,-15 -15,-15 -8.284,0 -15,6.716 -15,15 v 15 h -45 c -8.284,0 -15,6.716 -15,15 0,8.284 6.716,15 15,15 h 87.139 c -4.771,14.185 -15.02,30.996 -26.938,47.174 -2.567,-3.466 -5.102,-7.013 -7.547,-10.609 -4.659,-6.851 -13.988,-8.628 -20.838,-3.969 -6.851,4.658 -8.627,13.988 -3.969,20.839 4.208,6.189 8.62,12.211 13.017,17.919 -7.496,8.694 -14.885,16.57 -21.369,22.94 -5.913,5.802 -6.003,15.299 -0.201,21.212 5.778,5.889 15.274,6.027 21.212,0.201 0.517,-0.508 8.698,-8.566 19.624,-20.937 10.663,12.2 18.645,20.218 19.264,20.837 5.855,5.855 15.349,5.858 21.208,0.002 5.858,-5.855 5.861,-15.352 0.007,-21.212 -0.157,-0.157 -9.34,-9.392 -21.059,-23.059 21.233,-27.448 34.179,-51.357 38.663,-71.338 h 1.786 c 8.284,0 15,-6.716 15,-15 0,-8.284 -6.715,-15 -14.999,-15 z" />
  </g>
</svg>
